<svg width="293" height="279" viewBox="0 0 293 279" fill="none" xmlns="http://www.w3.org/2000/svg">
<path d="M107 53.5C107 83.0472 83.0472 107 53.5 107C23.9528 107 0 83.0472 0 53.5C0 23.9528 23.9528 0 53.5 0C83.0472 0 107 23.9528 107 53.5Z" fill="#FFEBE7"/>
<path d="M288 53.5C288 83.0472 264.047 107 234.5 107C204.953 107 181 83.0472 181 53.5C181 23.9528 204.953 0 234.5 0C264.047 0 288 23.9528 288 53.5Z" fill="#FFEBE7"/>
<path d="M107 225.5C107 255.047 83.0472 279 53.5 279C23.9528 279 0 255.047 0 225.5C0 195.953 23.9528 172 53.5 172C83.0472 172 107 195.953 107 225.5Z" fill="#FFEBE7"/>
<path d="M293 225.5C293 255.047 269.047 279 239.5 279C209.953 279 186 255.047 186 225.5C186 195.953 209.953 172 239.5 172C269.047 172 293 195.953 293 225.5Z" fill="#C4C4C4"/>
</svg>
