<svg width="20" height="20" viewBox="0 0 20 20" fill="none" xmlns="http://www.w3.org/2000/svg">
<path d="M10.7164 0.0297853C9.28583 -0.0743494 7.84964 0.130752 6.50543 0.631146C5.16122 1.13154 3.94052 1.91549 2.9263 2.92972C1.91208 3.94394 1.12812 5.16464 0.627728 6.50885C0.127334 7.85306 -0.0777674 9.28925 0.0263674 10.7198C0.386367 16.0098 5.00637 19.9998 10.3064 19.9998H13.9964C14.5464 19.9998 14.9964 19.5498 14.9964 18.9998C14.9964 18.4498 14.5464 17.9998 13.9964 17.9998H10.3264C6.59637 17.9998 3.17637 15.5798 2.24637 11.9698C0.756367 6.16979 6.15637 0.759786 11.9564 2.25979C15.5764 3.17979 17.9964 6.59979 17.9964 10.3298V11.4298C17.9964 12.2198 17.2864 12.9998 16.4964 12.9998C15.7064 12.9998 14.9964 12.2198 14.9964 11.4298V10.1798C14.9964 7.66979 13.2164 5.40979 10.7364 5.05979C9.94732 4.94246 9.14167 5.01532 8.38648 5.2723C7.63129 5.52929 6.94841 5.96295 6.39471 6.5372C5.841 7.11145 5.43249 7.80967 5.20317 8.57372C4.97386 9.33776 4.93039 10.1455 5.07637 10.9298C5.25175 11.8748 5.69599 12.7491 6.35581 13.4479C7.01563 14.1468 7.86302 14.6405 8.79637 14.8698C10.6364 15.2998 12.3864 14.7098 13.5364 13.5398C14.4264 14.7598 16.2064 15.3998 17.8364 14.7498C19.1764 14.2198 19.9964 12.8498 19.9964 11.4098V10.3198C19.9964 5.00979 16.0064 0.389785 10.7164 0.0297853V0.0297853ZM9.99637 12.9998C8.33637 12.9998 6.99637 11.6598 6.99637 9.99979C6.99637 8.33979 8.33637 6.99979 9.99637 6.99979C11.6564 6.99979 12.9964 8.33979 12.9964 9.99979C12.9964 11.6598 11.6564 12.9998 9.99637 12.9998Z" fill="black"/>
</svg>
